# xmcd CD database file
#
# Track frame offsets:
#	150
#	39872
#	48897
#	67850
#	81882
#	107250
#	142592
#	161415
#	168730
#	183897
#	199222
#	210497
#
# Disc length: 3029 seconds
#
# Revision: 5
# Processed by: cddbd v1.5.2PL0 Copyright (c) Steve Scherf et al.
# Submitted via: CDex 1.51
#
DISCID=8c0bd30c
DTITLE=Uli Jon Roth - Transcendental Skyguitar (Disc-1: Volume I - The Phoenix)
DYEAR=2000
DGENRE=Rock
TTITLE0=Sky Overture
TTITLE1=Rondo Alla Turca
TTITLE2=Sehnsucht
TTITLE3=Tuona E Fulmina
TTITLE4=Baba-Yaga
TTITLE5=Earthquake
TTITLE6=Meditation
TTITLE7=Paganini Paraphrase
TTITLE8=Fairy Dance
TTITLE9=Beethoven Paraphrase
TTITLE10=Recuerdos De La Alhambra
TTITLE11=Air De Aranjuez
EXTD=Part 1 of a 2-disc instrumental set from one of the founding members of the Scorpions. YEAR: 2000
EXTT0=
EXTT1=
EXTT2=
EXTT3=
EXTT4=
EXTT5=
EXTT6=
EXTT7=
EXTT8=
EXTT9=
EXTT10=
EXTT11=
PLAYORDER=
